<svg width="40" height="40" viewBox="0 0 40 40" fill="none" xmlns="http://www.w3.org/2000/svg">
<g id="icon/action/shopping_cart_24px">
<path id="icon/action/shopping_cart_24px_2" fill-rule="evenodd" clip-rule="evenodd" d="M3.32715 5.00001C3.32715 5.91668 4.07715 6.66668 4.99381 6.66668H6.66048L12.6605 19.3167L10.4105 23.3833C9.19381 25.6167 10.7938 28.3333 13.3271 28.3333H31.6605C32.5771 28.3333 33.3271 27.5833 33.3271 26.6667C33.3271 25.75 32.5771 25 31.6605 25H13.3271L15.1605 21.6667H27.5771C28.8271 21.6667 29.9271 20.9833 30.4938 19.95L36.4605 9.13334C37.0771 8.03334 36.2771 6.66668 35.0105 6.66668H10.3438L9.22715 4.28334C8.96048 3.70001 8.36048 3.33334 7.72715 3.33334H4.99381C4.07715 3.33334 3.32715 4.08334 3.32715 5.00001ZM13.3272 30C11.4938 30 10.0105 31.5 10.0105 33.3333C10.0105 35.1667 11.4938 36.6667 13.3272 36.6667C15.1605 36.6667 16.6605 35.1667 16.6605 33.3333C16.6605 31.5 15.1605 30 13.3272 30ZM26.6772 33.3333C26.6772 31.5 28.1605 30 29.9938 30C31.8272 30 33.3272 31.5 33.3272 33.3333C33.3272 35.1667 31.8272 36.6667 29.9938 36.6667C28.1605 36.6667 26.6772 35.1667 26.6772 33.3333Z" fill="#37B0B8" fill-opacity="0.54"/>
</g>
</svg>
